<svg xmlns="http://www.w3.org/2000/svg" viewBox="0 0 64 64" role="img" aria-label="SpringWell SS Guide">
  <defs>
    <linearGradient id="tile" x1="0" y1="0" x2="0" y2="1">
      <stop offset="0" stop-color="#0c4a4d"/>
      <stop offset="1" stop-color="#08383a"/>
    </linearGradient>
    <clipPath id="drop">
      <path d="M32 9 C 41 24 49 32 49 41 a 17 17 0 1 1 -34 0 C 15 32 23 24 32 9 Z"/>
    </clipPath>
  </defs>
  <rect width="64" height="64" rx="15" fill="url(#tile)"/>
  <path d="M32 9 C 41 24 49 32 49 41 a 17 17 0 1 1 -34 0 C 15 32 23 24 32 9 Z" fill="#ffffff"/>
  <g clip-path="url(#drop)">
    <path d="M12 43 q 6 -5 11 0 t 11 0 t 11 0 t 11 0 V 60 H 12 Z" fill="#10b3a3"/>
    <path d="M12 47 q 6 -5 11 0 t 11 0 t 11 0 t 11 0 V 60 H 12 Z" fill="#0a9488" opacity="0.55"/>
  </g>
</svg>
